<svg width="800px" height="800px" viewBox="0 0 24 30" fill="none" xmlns="http://www.w3.org/2000/svg">
<path d="M9.33333 13.3333C12.555 13.3333 15.1667 10.7216 15.1667 7.49996C15.1667 4.2783 12.555 1.66663 9.33333 1.66663C6.11167 1.66663 3.5 4.2783 3.5 7.49996C3.5 10.7216 6.11167 13.3333 9.33333 13.3333Z" fill="black"/>
<path d="M0 23.6666C0 19.2483 3.58172 15.6666 8 15.6666H10.6667C15.0849 15.6666 18.6667 19.2483 18.6667 23.6666V25.3333C18.6667 26.4379 17.7712 27.3333 16.6667 27.3333H2C0.895429 27.3333 0 26.4379 0 25.3333V23.6666Z" fill="black"/>
<path d="M19.8333 15.6666C21.7663 15.6666 23.3333 14.0996 23.3333 12.1666C23.3333 10.2336 21.7663 8.66663 19.8333 8.66663C17.9003 8.66663 16.3333 10.2336 16.3333 12.1666C16.3333 14.0996 17.9003 15.6666 19.8333 15.6666Z" fill="black"/>
<path d="M22.1667 12.1667V2.83337L25.6667 4.00004" stroke="black" stroke-width="2" stroke-linecap="round" stroke-linejoin="round"/>
</svg>
