<svg width="24" height="24" viewBox="0 0 24 24" fill="none" xmlns="http://www.w3.org/2000/svg">
<path d="M15.15 7C15.15 8.7397 13.7397 10.15 12 10.15V11.85C14.6786 11.85 16.85 9.67858 16.85 7H15.15ZM12 10.15C10.2603 10.15 8.85 8.7397 8.85 7H7.15C7.15 9.67858 9.32142 11.85 12 11.85V10.15ZM8.85 7C8.85 5.2603 10.2603 3.85 12 3.85V2.15C9.32142 2.15 7.15 4.32142 7.15 7H8.85ZM12 3.85C13.7397 3.85 15.15 5.2603 15.15 7H16.85C16.85 4.32142 14.6786 2.15 12 2.15V3.85ZM18.15 17.5C18.15 17.9711 17.746 18.6264 16.5696 19.2146C15.4441 19.7774 13.8297 20.15 12 20.15V21.85C14.0363 21.85 15.9219 21.4391 17.3299 20.7351C18.687 20.0566 19.85 18.9619 19.85 17.5H18.15ZM12 20.15C10.1703 20.15 8.55593 19.7774 7.43038 19.2146C6.25399 18.6264 5.85 17.9711 5.85 17.5H4.15C4.15 18.9619 5.31301 20.0566 6.67012 20.7351C8.07807 21.4391 9.96366 21.85 12 21.85V20.15ZM5.85 17.5C5.85 17.0289 6.25399 16.3736 7.43038 15.7854C8.55593 15.2226 10.1703 14.85 12 14.85V13.15C9.96366 13.15 8.07807 13.5609 6.67012 14.2649C5.31301 14.9434 4.15 16.0381 4.15 17.5H5.85ZM12 14.85C13.8297 14.85 15.4441 15.2226 16.5696 15.7854C17.746 16.3736 18.15 17.0289 18.15 17.5H19.85C19.85 16.0381 18.687 14.9434 17.3299 14.2649C15.9219 13.5609 14.0363 13.15 12 13.15V14.85Z" fill="black"/>
</svg>
