<svg width="24" height="25" viewBox="0 0 24 25" fill="none" xmlns="http://www.w3.org/2000/svg">
<path fill-rule="evenodd" clip-rule="evenodd" d="M2 8.5C0.895431 8.5 0 9.39543 0 10.5V22.5C0 23.6046 0.89543 24.5 2 24.5H22C23.1046 24.5 24 23.6046 24 22.5V10.5C24 9.39543 23.1046 8.5 22 8.5H2ZM9.5 14.0002C9.5 13.2323 10.3295 12.751 10.9961 13.1319L14.9806 15.4087C15.6524 15.7926 15.6524 16.7613 14.9806 17.1452L10.9961 19.4221C10.3295 19.803 9.5 19.3216 9.5 18.5538V14.0002Z" fill="black"/>
<rect x="1" y="4.5" width="22" height="2" rx="1" fill="black"/>
<rect x="2" y="0.5" width="20" height="2" rx="1" fill="black"/>
</svg>
