<svg width="38" height="38" viewBox="0 0 38 38" fill="none" xmlns="http://www.w3.org/2000/svg">
<g id="Repeat">
<path id="Path 2 Copy" d="M35.0599 9.07474C35.6865 8.68307 35.6865 7.77041 35.0599 7.37874L25.28 1.26632C24.614 0.850041 23.75 1.32888 23.75 2.11432V14.3392C23.75 15.1246 24.614 15.6034 25.28 15.1872L35.0599 9.07474Z" fill="black"/>
<path id="Path 2 Copy 2" d="M3.11957 29.6582C2.49291 29.2666 2.49291 28.3539 3.11957 27.9622L12.8994 21.8498C13.5655 21.4335 14.4294 21.9124 14.4294 22.6978V34.9227C14.4294 35.7081 13.5655 36.1869 12.8994 35.7707L3.11957 29.6582Z" fill="black"/>
<path id="Path 4" d="M6.33337 17.4167V17.4167C6.33337 12.17 10.5867 7.91675 15.8334 7.91675V7.91675H23.75" stroke="black" stroke-width="2" stroke-linecap="round" stroke-linejoin="round"/>
<path id="Path 4 Copy" d="M30.0834 19V19C30.0834 24.2467 25.8301 28.5 20.5834 28.5V28.5H12.6667" stroke="black" stroke-width="2" stroke-linecap="round" stroke-linejoin="round"/>
</g>
</svg>
