<svg width="38" height="38" viewBox="0 0 38 38" fill="none" xmlns="http://www.w3.org/2000/svg">
<path d="M25.3333 28.4999C22.8362 28.4999 20.4986 27.5223 18.7643 25.863" stroke="#005bea" stroke-width="2" stroke-linecap="round" stroke-linejoin="round"/>
<path d="M11.3283 12.7489C9.1655 10.7035 6.26421 9.5 3.16663 9.5" stroke="#005bea" stroke-width="2" stroke-linecap="round" stroke-linejoin="round"/>
<path d="M36.6431 29.6582C37.2698 29.2666 37.2698 28.3539 36.6431 27.9622L26.8633 21.8498C26.1972 21.4335 25.3333 21.9124 25.3333 22.6978V34.9227C25.3333 35.7081 26.1972 36.1869 26.8633 35.7707L36.6431 29.6582Z" fill="#005bea"/>
<path d="M25.3333 9.5H24.3333C21.1037 9.5 18.1908 11.4419 16.9487 14.4231L13.1346 23.5769C11.8924 26.5581 8.97957 28.5 5.74996 28.5H3.16663" stroke="#005bea" stroke-width="2" stroke-linecap="round" stroke-linejoin="round"/>
<path d="M35.0599 10.6582C35.6865 10.2666 35.6865 9.3539 35.0599 8.96224L25.28 2.84982C24.614 2.43354 23.75 2.91238 23.75 3.69782V15.9227C23.75 16.7081 24.614 17.1869 25.28 16.7707L35.0599 10.6582Z" fill="#005bea"/>
</svg>
